<?xml version="1.0" encoding="UTF-8" standalone="no"?>
<svg
   xmlns:dc="http://purl.org/dc/elements/1.1/"
   xmlns:cc="http://creativecommons.org/ns#"
   xmlns:rdf="http://www.w3.org/1999/02/22-rdf-syntax-ns#"
   xmlns:svg="http://www.w3.org/2000/svg"
   xmlns="http://www.w3.org/2000/svg"
   xmlns:sodipodi="http://sodipodi.sourceforge.net/DTD/sodipodi-0.dtd"
   xmlns:inkscape="http://www.inkscape.org/namespaces/inkscape"
   version="1.1"
   id="Capa_1"
   x="0px"
   y="0px"
   viewBox="0 0 512 360"
   xml:space="preserve"
   sodipodi:docname="parametreshover.svg"
   width="512"
   height="360"
   inkscape:version="1.0.2-2 (e86c870879, 2021-01-15)"><metadata
   id="metadata43"><rdf:RDF><cc:Work
       rdf:about=""><dc:format>image/svg+xml</dc:format><dc:type
         rdf:resource="http://purl.org/dc/dcmitype/StillImage" /><dc:title></dc:title></cc:Work></rdf:RDF></metadata><defs
   id="defs41"><rect
     x="99.990588"
     y="110.83294"
     width="456.58353"
     height="198.77647"
     id="rect47" /><rect
     x="99.990588"
     y="110.83294"
     width="456.58353"
     height="198.77647"
     id="rect47-0" /><rect
     x="99.990588"
     y="110.83294"
     width="456.58353"
     height="198.77647"
     id="rect47-6" /></defs><sodipodi:namedview
   pagecolor="#ffffff"
   bordercolor="#666666"
   borderopacity="1"
   objecttolerance="10"
   gridtolerance="10"
   guidetolerance="10"
   inkscape:pageopacity="0"
   inkscape:pageshadow="2"
   inkscape:window-width="1426"
   inkscape:window-height="1040"
   id="namedview39"
   showgrid="false"
   inkscape:zoom="0.83007813"
   inkscape:cx="393.80496"
   inkscape:cy="297.31737"
   inkscape:window-x="2158"
   inkscape:window-y="0"
   inkscape:window-maximized="0"
   inkscape:current-layer="g6"
   inkscape:document-rotation="0" />
<g
   id="g6">
	<g
   id="g4"
   transform="translate(0,-76)"
   style="fill:#008000">
		<path
   d="M 407,76 H 105 C 47.103,76 0,123.103 0,181 v 150 c 0,57.897 47.103,105 105,105 h 302 c 57.897,0 105,-47.103 105,-105 V 181 C 512,123.103 464.897,76 407,76 Z m 75,255 c 0,41.355 -33.645,75 -75,75 H 105 C 63.645,406 30,372.355 30,331 V 181 c 0,-41.355 33.645,-75 75,-75 h 302 c 41.355,0 75,33.645 75,75 z"
   id="path2"
   style="fill:#008000" />
	</g>
<g
   id="g119"
   transform="matrix(6.7323593,0,0,6.7320907,171.8455,95.8455)"><g
     id="g63">
	<path
   d="M 24.38,10.175 22.149,9.907 C 21.921,9.056 21.587,8.252 21.157,7.506 l 1.387,-1.763 c 0.212,-0.271 0.188,-0.69 -0.057,-0.934 l -2.299,-2.3 C 19.946,2.266 19.526,2.24 19.254,2.452 L 17.488,3.841 C 16.745,3.411 15.941,3.077 15.092,2.851 L 14.825,0.62 C 14.784,0.279 14.469,0 14.125,0 H 10.873 C 10.529,0 10.214,0.279 10.174,0.62 L 9.906,2.851 C 9.056,3.078 8.251,3.413 7.508,3.842 L 5.743,2.455 C 5.473,2.243 5.053,2.268 4.81,2.511 L 2.51,4.812 C 2.268,5.054 2.243,5.474 2.456,5.746 L 3.842,7.51 C 3.412,8.254 3.078,9.059 2.851,9.91 l -2.23,0.267 C 0.28,10.217 0,10.532 0,10.877 v 3.252 c 0,0.344 0.279,0.657 0.621,0.699 l 2.231,0.268 c 0.228,0.848 0.561,1.652 0.991,2.396 l -1.386,1.766 c -0.211,0.271 -0.187,0.69 0.057,0.934 l 2.296,2.301 c 0.243,0.242 0.663,0.269 0.933,0.057 l 1.766,-1.39 c 0.744,0.43 1.548,0.765 2.398,0.991 l 0.268,2.23 c 0.041,0.342 0.355,0.62 0.699,0.62 h 3.252 c 0.345,0 0.659,-0.278 0.699,-0.62 l 0.268,-2.23 c 0.851,-0.228 1.655,-0.562 2.398,-0.991 l 1.766,1.387 c 0.271,0.212 0.69,0.187 0.933,-0.056 l 2.299,-2.301 c 0.244,-0.242 0.269,-0.662 0.056,-0.935 l -1.388,-1.764 c 0.431,-0.744 0.764,-1.548 0.992,-2.397 l 2.23,-0.268 C 24.721,14.785 25,14.473 25,14.127 v -3.252 c 0.001,-0.346 -0.277,-0.659 -0.62,-0.7 z M 12.501,18.75 c -3.452,0 -6.25,-2.798 -6.25,-6.25 0,-3.452 2.798,-6.25 6.25,-6.25 3.452,0 6.25,2.798 6.25,6.25 0,3.452 -2.797,6.25 -6.25,6.25 z"
   id="path61" />
</g><g
     id="g65">
</g><g
     id="g67">
</g><g
     id="g69">
</g><g
     id="g71">
</g><g
     id="g73">
</g><g
     id="g75">
</g><g
     id="g77">
</g><g
     id="g79">
</g><g
     id="g81">
</g><g
     id="g83">
</g><g
     id="g85">
</g><g
     id="g87">
</g><g
     id="g89">
</g><g
     id="g91">
</g><g
     id="g93">
</g></g></g>
<g
   id="g8">
</g>
<g
   id="g10">
</g>
<g
   id="g12">
</g>
<g
   id="g14">
</g>
<g
   id="g16">
</g>
<g
   id="g18">
</g>
<g
   id="g20">
</g>
<g
   id="g22">
</g>
<g
   id="g24">
</g>
<g
   id="g26">
</g>
<g
   id="g28">
</g>
<g
   id="g30">
</g>
<g
   id="g32">
</g>
<g
   id="g34">
</g>
<g
   id="g36">
</g>
</svg>
