<?xml version="1.0" encoding="UTF-8" standalone="no"?>
<svg
   xmlns:dc="http://purl.org/dc/elements/1.1/"
   xmlns:cc="http://creativecommons.org/ns#"
   xmlns:rdf="http://www.w3.org/1999/02/22-rdf-syntax-ns#"
   xmlns:svg="http://www.w3.org/2000/svg"
   xmlns="http://www.w3.org/2000/svg"
   xmlns:sodipodi="http://sodipodi.sourceforge.net/DTD/sodipodi-0.dtd"
   xmlns:inkscape="http://www.inkscape.org/namespaces/inkscape"
   version="1.1"
   id="Capa_1"
   x="0px"
   y="0px"
   viewBox="0 0 512 360"
   xml:space="preserve"
   sodipodi:docname="resethover.svg"
   width="512"
   height="360"
   inkscape:version="1.0.2-2 (e86c870879, 2021-01-15)"><metadata
   id="metadata43"><rdf:RDF><cc:Work
       rdf:about=""><dc:format>image/svg+xml</dc:format><dc:type
         rdf:resource="http://purl.org/dc/dcmitype/StillImage" /><dc:title></dc:title></cc:Work></rdf:RDF></metadata><defs
   id="defs41"><rect
     x="99.990588"
     y="110.83294"
     width="456.58353"
     height="198.77647"
     id="rect47" /></defs><sodipodi:namedview
   pagecolor="#ffffff"
   bordercolor="#666666"
   borderopacity="1"
   objecttolerance="10"
   gridtolerance="10"
   guidetolerance="10"
   inkscape:pageopacity="0"
   inkscape:pageshadow="2"
   inkscape:window-width="1426"
   inkscape:window-height="1040"
   id="namedview39"
   showgrid="false"
   inkscape:zoom="0.83007813"
   inkscape:cx="393.80496"
   inkscape:cy="297.31737"
   inkscape:window-x="2158"
   inkscape:window-y="0"
   inkscape:window-maximized="0"
   inkscape:current-layer="g6"
   inkscape:document-rotation="0" />
<g
   id="g6">
	<g
   id="g4"
   transform="translate(0,-76)"
   style="fill:#008000">
		<path
   d="M 407,76 H 105 C 47.103,76 0,123.103 0,181 v 150 c 0,57.897 47.103,105 105,105 h 302 c 57.897,0 105,-47.103 105,-105 V 181 C 512,123.103 464.897,76 407,76 Z m 75,255 c 0,41.355 -33.645,75 -75,75 H 105 C 63.645,406 30,372.355 30,331 V 181 c 0,-41.355 33.645,-75 75,-75 h 302 c 41.355,0 75,33.645 75,75 z"
   id="path2"
   style="fill:#008000" />
	</g>
<path
   d="m 180.54809,171.29092 h 0.008 a -8.7053612,8.7044902 0 0 1 8.6981,8.7121 -66.763954,66.757274 0 0 0 105.01822,54.6526 c 30.14231,-21.10404 37.49435,-62.7942 16.3882,-92.93386 -21.10617,-30.13966 -62.80086,-37.49169 -92.94317,-16.38693 a -66.769395,66.762715 0 0 0 -12.33695,11.13813 h 24.49834 a -8.7053612,8.7044902 0 0 1 0,17.40898 h -40.62502 a -8.7053612,8.7044902 0 0 1 -8.70536,-8.70449 v -40.62096 a -8.7053612,8.7044902 0 0 1 17.41072,0 v 14.49552 a -84.940748,84.93225 0 0 1 9.77177,-7.97912 -84.145902,84.137483 0 1 1 96.52758,137.84322 -83.529755,83.521397 0 0 1 -48.08515,15.2383 -85.229476,85.220949 0 0 1 -14.7904,-1.30023 -84.160893,84.152473 0 0 1 -69.53989,-82.86639 -8.7053612,8.7044902 0 0 1 8.70501,-8.69687 z"
   id="path44"
   style="stroke-width:0.362705" /></g>
<g
   id="g8">
</g>
<g
   id="g10">
</g>
<g
   id="g12">
</g>
<g
   id="g14">
</g>
<g
   id="g16">
</g>
<g
   id="g18">
</g>
<g
   id="g20">
</g>
<g
   id="g22">
</g>
<g
   id="g24">
</g>
<g
   id="g26">
</g>
<g
   id="g28">
</g>
<g
   id="g30">
</g>
<g
   id="g32">
</g>
<g
   id="g34">
</g>
<g
   id="g36">
</g>
</svg>
