<?xml version="1.0" encoding="UTF-8" standalone="no"?>
<svg
   xmlns:dc="http://purl.org/dc/elements/1.1/"
   xmlns:cc="http://creativecommons.org/ns#"
   xmlns:rdf="http://www.w3.org/1999/02/22-rdf-syntax-ns#"
   xmlns:svg="http://www.w3.org/2000/svg"
   xmlns="http://www.w3.org/2000/svg"
   xmlns:sodipodi="http://sodipodi.sourceforge.net/DTD/sodipodi-0.dtd"
   xmlns:inkscape="http://www.inkscape.org/namespaces/inkscape"
   version="1.1"
   id="Capa_1"
   x="0px"
   y="0px"
   viewBox="0 0 512 360"
   xml:space="preserve"
   sodipodi:docname="showhover.svg"
   width="512"
   height="360"
   inkscape:version="1.0.2-2 (e86c870879, 2021-01-15)"><metadata
   id="metadata43"><rdf:RDF><cc:Work
       rdf:about=""><dc:format>image/svg+xml</dc:format><dc:type
         rdf:resource="http://purl.org/dc/dcmitype/StillImage" /><dc:title></dc:title></cc:Work></rdf:RDF></metadata><defs
   id="defs41"><rect
     x="99.990588"
     y="110.83294"
     width="550.55059"
     height="203.59529"
     id="rect47" /></defs><sodipodi:namedview
   pagecolor="#ffffff"
   bordercolor="#666666"
   borderopacity="1"
   objecttolerance="10"
   gridtolerance="10"
   guidetolerance="10"
   inkscape:pageopacity="0"
   inkscape:pageshadow="2"
   inkscape:window-width="1920"
   inkscape:window-height="1017"
   id="namedview39"
   showgrid="false"
   inkscape:zoom="0.83007813"
   inkscape:cx="393.80496"
   inkscape:cy="297.31737"
   inkscape:window-x="1672"
   inkscape:window-y="-8"
   inkscape:window-maximized="1"
   inkscape:current-layer="g6"
   inkscape:document-rotation="0" />
<g
   id="g6">
	<g
   id="g4"
   transform="translate(0,-76)"
   style="fill:#008000">
		<path
   d="M 407,76 H 105 C 47.103,76 0,123.103 0,181 v 150 c 0,57.897 47.103,105 105,105 h 302 c 57.897,0 105,-47.103 105,-105 V 181 C 512,123.103 464.897,76 407,76 Z m 75,255 c 0,41.355 -33.645,75 -75,75 H 105 C 63.645,406 30,372.355 30,331 V 181 c 0,-41.355 33.645,-75 75,-75 h 302 c 41.355,0 75,33.645 75,75 z"
   id="path2"
   style="fill:#008000" />
	</g>
<text
   xml:space="preserve"
   id="text45"
   style="font-style:normal;font-variant:normal;font-weight:normal;font-stretch:normal;font-size:86.6667px;line-height:1.25;font-family:Arial;-inkscape-font-specification:Arial;white-space:pre;shape-inside:url(#rect47);fill:#000000;fill-opacity:1;stroke:none;"
   transform="translate(-65.713866,22.142605)"><tspan
     x="99.990234"
     y="188.89745"><tspan
       style="font-size:86.6667px">MONTRER</tspan></tspan></text></g>
<g
   id="g8">
</g>
<g
   id="g10">
</g>
<g
   id="g12">
</g>
<g
   id="g14">
</g>
<g
   id="g16">
</g>
<g
   id="g18">
</g>
<g
   id="g20">
</g>
<g
   id="g22">
</g>
<g
   id="g24">
</g>
<g
   id="g26">
</g>
<g
   id="g28">
</g>
<g
   id="g30">
</g>
<g
   id="g32">
</g>
<g
   id="g34">
</g>
<g
   id="g36">
</g>
</svg>
