<?xml version="1.0" encoding="UTF-8" standalone="no"?>
<svg
   xmlns:dc="http://purl.org/dc/elements/1.1/"
   xmlns:cc="http://creativecommons.org/ns#"
   xmlns:rdf="http://www.w3.org/1999/02/22-rdf-syntax-ns#"
   xmlns:svg="http://www.w3.org/2000/svg"
   xmlns="http://www.w3.org/2000/svg"
   xmlns:sodipodi="http://sodipodi.sourceforge.net/DTD/sodipodi-0.dtd"
   xmlns:inkscape="http://www.inkscape.org/namespaces/inkscape"
   version="1.1"
   id="Capa_1"
   x="0px"
   y="0px"
   viewBox="0 0 512 360"
   xml:space="preserve"
   sodipodi:docname="undo.svg"
   width="512"
   height="360"
   inkscape:version="1.0.2-2 (e86c870879, 2021-01-15)"><metadata
   id="metadata43"><rdf:RDF><cc:Work
       rdf:about=""><dc:format>image/svg+xml</dc:format><dc:type
         rdf:resource="http://purl.org/dc/dcmitype/StillImage" /><dc:title></dc:title></cc:Work></rdf:RDF></metadata><defs
   id="defs41"><rect
     x="99.990588"
     y="110.83294"
     width="456.58353"
     height="198.77647"
     id="rect47" /></defs><sodipodi:namedview
   pagecolor="#ffffff"
   bordercolor="#666666"
   borderopacity="1"
   objecttolerance="10"
   gridtolerance="10"
   guidetolerance="10"
   inkscape:pageopacity="0"
   inkscape:pageshadow="2"
   inkscape:window-width="1920"
   inkscape:window-height="1017"
   id="namedview39"
   showgrid="false"
   inkscape:zoom="0.83007813"
   inkscape:cx="393.80496"
   inkscape:cy="104.56443"
   inkscape:window-x="1672"
   inkscape:window-y="-8"
   inkscape:window-maximized="1"
   inkscape:current-layer="g6"
   inkscape:document-rotation="0" />
<g
   id="g6">
	<g
   id="g4"
   transform="translate(0,-76)">
		<path
   d="M 407,76 H 105 C 47.103,76 0,123.103 0,181 v 150 c 0,57.897 47.103,105 105,105 h 302 c 57.897,0 105,-47.103 105,-105 V 181 C 512,123.103 464.897,76 407,76 Z m 75,255 c 0,41.355 -33.645,75 -75,75 H 105 C 63.645,406 30,372.355 30,331 V 181 c 0,-41.355 33.645,-75 75,-75 h 302 c 41.355,0 75,33.645 75,75 z"
   id="path2" />
	</g>
<path
   d="m 210.70871,76.004185 c -4.20016,0 -8.31984,1.65037 -11.42341,4.76704 L 159.71677,120.4834 c -4.59146,4.60835 -7.1207,10.73855 -7.1207,17.26229 0,6.52374 2.52924,12.65552 7.1207,17.26388 l 39.56853,39.71216 c 4.64983,4.66866 11.57803,6.04768 17.64948,3.51499 6.06356,-2.52952 9.98128,-8.42644 9.98128,-15.0216 V 145.8722 c 64.14465,0 116.331,52.48671 116.331,117.00052 v 12.9983 c 0,4.48775 3.61636,8.12492 8.07844,8.12492 4.46207,0 8.07843,-3.63717 8.07843,-8.12492 v -12.9983 c 0,-35.59257 -13.78067,-69.05552 -38.80488,-94.22375 -25.0242,-25.16664 -58.29409,-39.02821 -93.68299,-39.02821 -8.90994,0 -16.15844,7.29021 -16.15844,16.24986 v 37.3445 c 0,0.002 0,0.003 0,0.005 -0.0126,0.006 -0.0284,0.0127 -0.0426,0.0175 -0.005,-0.006 -0.0111,-0.0111 -0.0174,-0.0175 l -39.56853,-39.71375 c -1.53206,-1.5377 -2.37619,-3.58321 -2.37619,-5.76044 0,-2.17723 0.84413,-4.22275 2.37619,-5.76045 l 39.56853,-39.712165 0.0174,-0.0175 c 0.0142,0.005 0.03,0.01 0.0426,0.0159 0,0.002 0,0.003 0,0.006 v 8.905675 c 0,4.48775 3.61794,8.12492 8.08001,8.12492 4.46049,0 8.07843,-3.63717 8.07843,-8.12492 v -8.905675 c 0,-6.59516 -3.91772,-12.49208 -9.98128,-15.02159 -2.01803,-0.84265 -4.13231,-1.25207 -6.22607,-1.25207 z m 0,0"
   id="path30"
   style="stroke-width:0.405081" /></g>
<g
   id="g8">
</g>
<g
   id="g10">
</g>
<g
   id="g12">
</g>
<g
   id="g14">
</g>
<g
   id="g16">
</g>
<g
   id="g18">
</g>
<g
   id="g20">
</g>
<g
   id="g22">
</g>
<g
   id="g24">
</g>
<g
   id="g26">
</g>
<g
   id="g28">
</g>
<g
   id="g30">
</g>
<g
   id="g32">
</g>
<g
   id="g34">
</g>
<g
   id="g36">
</g>
</svg>
